{"title":"Wall.Street.2.Money.Never.Sleeps.2010.DvDrip-[xBlackEdge].mp4","uid":5977480,"size":573038467,"categoryP":"video","categoryS":"movies","magnet":"?xt=urn:btih:b9cf3315feb6750ea89997dcb51db10f4dda4b6b&amp;dn=Wall.Street.2.Money.Never.Sleeps.2010.DvDrip-%5BxBlackEdge%5D.mp4&amp;tr=udp%3A%2F%2Ftracker.openbittorrent.com%3A80&amp;tr=udp%3A%2F%2Fopen.demonii.com%3A1337&amp;tr=udp%3A%2F%2Ftracker.coppersurfer.tk%3A6969&amp;tr=udp%3A%2F%2Fexodus.desync.com%3A6969","seeders":0,"leechers":0,"uploader":"xBlackEdge","files":1,"time":1290484614,"description":"Video\nID                               : 1\nFormat                           : AVC\nFormat/Info                      : Advanced Video Codec\nFormat profile                   : &lt;a class=&quot;__cf_email__&quot; href=&quot;/cdn-cgi/l/email-protection&quot; data-cfemail=&quot;c981a0aea18985fce7f8&quot;&gt;[email&amp;#160;protected]&lt;/a&gt;&lt;script cf-hash='f9e31' type=&quot;text/javascript&quot;&gt;\n/* &lt;![CDATA[ */!function(){try{var t=&quot;currentScript&quot;in document?document.currentScript:function(){for(var t=document.getElementsByTagName(&quot;script&quot;),e=t.length;e--;)if(t[e].getAttribute(&quot;cf-hash&quot;))return t[e]}();if(t&amp;&amp;t.previousSibling){var e,r,n,i,c=t.previousSibling,a=c.getAttribute(&quot;data-cfemail&quot;);if(a){for(e=&quot;&quot;,r=parseInt(a.substr(0,2),16),n=2;a.length-n;n+=2)i=parseInt(a.substr(n,2),16)^r,e+=String.fromCharCode(i);e=document.createTextNode(e),c.parentNode.replaceChild(e,c)}}}catch(u){}}();/* ]]&gt; */&lt;/script&gt;\nFormat settings, CABAC           : Yes\nFormat settings, ReFrames        : 3 frames\nCodec ID                         : avc1\nCodec ID/Info                    : Advanced Video Coding\nDuration                         : 2h 12mn\nBit rate mode                    : Variable\nBit rate                         : 512 Kbps\nMaximum bit rate                 : 4 536 Kbps\nWidth                            : 656 pixels\nHeight                           : 280 pixels\nDisplay aspect ratio             : 2.35:1\nFrame rate mode                  : Constant\nFrame rate                       : 23.976 fps\nColor space                      : YUV\nChroma subsampling               : 4:2:0\nBit depth                        : 8 bits\nScan type                        : Progressive\nBits/(Pixel*Frame)               : 0.116\nStream size                      : 487 MiB (89%)\n\n\nAudio\nID                               : 2\nFormat                           : AAC\nFormat/Info                      : Advanced Audio Codec\nFormat version                   : Version 4\nFormat profile                   : LC\nFormat settings, SBR             : No\nCodec ID                         : 40\nDuration                         : 2h 12mn\nBit rate mode                    : Variable\nBit rate                         : 58.9 Kbps\nMaximum bit rate                 : 101 Kbps\nChannel(s)                       : 2 channels\nChannel positions                : Front: L R\nSampling rate                    : 48.0 KHz\nStream size                      : 56.0 MiB (10%)","torrent":{"xt":"urn:btih:b9cf3315feb6750ea89997dcb51db10f4dda4b6b","amp;dn":"Wall.Street.2.Money.Never.Sleeps.2010.DvDrip-%5BxBlackEdge%5D.mp4","amp;tr":["udp%3A%2F%2Ftracker.openbittorrent.com%3A80","udp%3A%2F%2Fopen.demonii.com%3A1337","udp%3A%2F%2Ftracker.coppersurfer.tk%3A6969","udp%3A%2F%2Fexodus.desync.com%3A6969"],"infoHash":"b9cf3315feb6750ea89997dcb51db10f4dda4b6b","infoHashBuffer":{"type":"Buffer","data":[185,207,51,21,254,182,117,14,168,153,151,220,181,29,177,15,77,218,75,107]},"announce":[],"urlList":[]}}